<?xml version="1.0" encoding="utf-8"?>
<svg viewBox="0 0 500 500" xmlns="http://www.w3.org/2000/svg">
  <defs>
    <clipPath clipPathUnits="userSpaceOnUse" id="clipPath20">
      <path d="M 0,300 H 400 V 0 H 0 Z" id="path18"/>
    </clipPath>
  </defs>
  <g id="g10" transform="matrix(1.259804, 0, 0, -1.277311, -3.161203, 422.088776)" style="">
    <g id="g14" style="" transform="matrix(6.377137, 0, 0, 4.707551, -1078.526489, -570.935303)">
      <g id="g16" clip-path="url(#clipPath20)">
        <g id="g22" transform="translate(205.0254,180.8335)">
          <path d="M 0,0 C 0.945,-0.298 1.869,-0.617 2.773,-0.953 2.939,-1.014 3.106,-1.075 3.27,-1.138 4.031,-1.43 4.776,-1.733 5.493,-2.053 5.612,-2.106 5.724,-2.163 5.841,-2.217 6.38,-2.464 6.902,-2.72 7.409,-2.984 c 0.182,-0.095 0.361,-0.19 0.537,-0.287 0.493,-0.27 0.967,-0.548 1.422,-0.836 0.111,-0.07 0.229,-0.136 0.338,-0.207 0.127,-0.084 0.245,-0.171 0.369,-0.257 0.278,-0.19 0.552,-0.382 0.812,-0.581 0.142,-0.107 0.275,-0.219 0.411,-0.329 0.229,-0.185 0.452,-0.373 0.665,-0.564 0.127,-0.116 0.25,-0.232 0.372,-0.35 0.202,-0.196 0.394,-0.396 0.578,-0.599 0.108,-0.119 0.218,-0.237 0.32,-0.358 0.139,-0.167 0.263,-0.34 0.39,-0.511 0.155,-0.209 0.307,-0.418 0.443,-0.633 0.188,-0.297 0.369,-0.596 0.518,-0.906 0.003,-0.006 0.006,-0.01 0.009,-0.016 0.18,-0.377 0.329,-0.764 0.449,-1.161 0.007,-0.022 0.012,-0.043 0.018,-0.065 0.116,-0.396 0.204,-0.8 0.256,-1.217 0.052,-0.423 0.077,-0.83 0.091,-1.23 1.477,1.461 2.861,3.055 4.068,4.775 -0.002,0.02 -0.002,0.039 -0.003,0.059 -0.017,0.243 -0.042,0.49 -0.073,0.742 -0.001,0.003 -0.001,0.006 -0.001,0.01 -0.02,0.155 -0.044,0.309 -0.073,0.462 -0.028,0.152 -0.062,0.304 -0.099,0.453 -0.025,0.098 -0.054,0.195 -0.083,0.292 -0.006,0.021 -0.011,0.043 -0.018,0.064 -0.009,0.03 -0.016,0.06 -0.025,0.09 -0.046,0.147 -0.097,0.292 -0.152,0.437 -0.081,0.212 -0.171,0.422 -0.269,0.629 -10e-4,0.002 -0.002,0.004 -0.003,0.006 -0.003,0.005 -0.006,0.01 -0.009,0.015 -0.116,0.242 -0.244,0.481 -0.384,0.715 -0.039,0.066 -0.092,0.126 -0.133,0.191 -0.136,0.215 -0.288,0.424 -0.443,0.632 -0.083,0.112 -0.15,0.23 -0.238,0.34 -0.048,0.059 -0.105,0.114 -0.154,0.172 -0.101,0.121 -0.21,0.239 -0.317,0.357 -0.185,0.204 -0.378,0.405 -0.581,0.602 -0.121,0.116 -0.243,0.232 -0.37,0.347 -0.081,0.073 -0.152,0.149 -0.235,0.221 -0.137,0.118 -0.289,0.23 -0.432,0.345 -0.135,0.11 -0.268,0.221 -0.409,0.329 -0.261,0.198 -0.535,0.39 -0.813,0.581 -0.124,0.085 -0.242,0.173 -0.369,0.256 C 13.76,0.05 13.734,0.07 13.705,0.089 13.625,0.141 13.532,0.187 13.451,0.239 12.996,0.526 12.522,0.805 12.03,1.074 11.945,1.12 11.87,1.172 11.785,1.218 11.691,1.268 11.587,1.312 11.492,1.361 10.986,1.625 10.465,1.88 9.928,2.127 9.837,2.169 9.754,2.215 9.662,2.257 9.634,2.269 9.603,2.28 9.575,2.293 8.858,2.613 8.114,2.916 7.353,3.207 7.279,3.236 7.21,3.268 7.135,3.297 7.045,3.331 6.947,3.359 6.857,3.392 5.953,3.728 5.03,4.047 4.085,4.345 4.048,4.356 4.014,4.37 3.977,4.382 3.913,4.402 3.846,4.417 3.782,4.437 2.58,4.809 1.357,5.152 0.124,5.468 0.068,5.482 0.013,5.501 -0.043,5.515 -0.171,5.548 -0.3,5.575 -0.429,5.607 -1.058,5.763 -1.686,5.913 -2.315,6.056 -2.48,6.094 -2.643,6.133 -2.807,6.169 c -0.77,0.171 -1.535,0.332 -2.295,0.483 -0.05,0.01 -0.101,0.022 -0.15,0.032 -0.264,0.052 -0.523,0.099 -0.784,0.149 -0.267,0.051 -0.534,0.103 -0.798,0.151 -0.331,0.061 -0.655,0.117 -0.981,0.175 -0.254,0.044 -0.51,0.09 -0.76,0.133 -0.331,0.056 -0.653,0.107 -0.977,0.16 -0.238,0.038 -0.479,0.078 -0.714,0.115 -0.328,0.051 -0.646,0.098 -0.967,0.146 -0.22,0.033 -0.445,0.067 -0.661,0.099 -0.025,0.003 -0.052,0.008 -0.078,0.011 -0.452,0.065 -0.891,0.126 -1.323,0.184 -0.116,0.015 -0.227,0.029 -0.342,0.044 -0.354,0.047 -0.7,0.092 -1.038,0.134 -0.127,0.016 -0.253,0.031 -0.378,0.047 -0.397,0.048 -0.784,0.094 -1.155,0.136 -0.023,0.003 -0.048,0.006 -0.071,0.009 -0.398,0.045 -0.775,0.086 -1.139,0.124 -0.109,0.012 -0.213,0.023 -0.319,0.034 -0.262,0.027 -0.514,0.052 -0.756,0.076 -0.097,0.01 -0.195,0.019 -0.289,0.028 -0.298,0.029 -0.583,0.056 -0.845,0.079 -0.007,10e-4 -0.013,10e-4 -0.021,0.002 -0.176,0.016 -0.325,0.028 -0.483,0.042 -0.118,0.01 -0.25,0.022 -0.358,0.031 -0.134,0.011 -0.24,0.019 -0.358,0.028 -0.106,0.009 -0.226,0.019 -0.318,0.026 -0.015,0.001 -0.023,0.001 -0.037,0.002 -0.361,0.028 -0.617,0.045 -0.736,0.053 l -4.083,-4.345 c 0.123,-0.008 0.388,-0.026 0.773,-0.056 0.059,-0.004 0.139,-0.011 0.204,-0.016 0.152,-0.012 0.301,-0.023 0.484,-0.038 10e-4,-0.001 0.003,-0.001 0.004,-0.001 0.248,-0.02 0.525,-0.044 0.826,-0.071 0.266,-0.024 0.559,-0.051 0.864,-0.081 0.097,-0.009 0.201,-0.019 0.303,-0.029 0.232,-0.023 0.476,-0.048 0.727,-0.074 0.112,-0.012 0.223,-0.023 0.338,-0.035 0.36,-0.038 0.733,-0.079 1.126,-0.123 0.041,-0.005 0.086,-0.01 0.127,-0.015 0.352,-0.04 0.719,-0.084 1.095,-0.13 0.135,-0.016 0.272,-0.034 0.41,-0.051 0.324,-0.04 0.656,-0.083 0.994,-0.127 0.126,-0.017 0.25,-0.033 0.378,-0.05 0.45,-0.061 0.911,-0.125 1.383,-0.193 0.237,-0.034 0.484,-0.072 0.726,-0.108 0.299,-0.045 0.596,-0.088 0.903,-0.136 0.25,-0.039 0.507,-0.082 0.762,-0.123 0.308,-0.05 0.615,-0.099 0.929,-0.152 0.262,-0.045 0.531,-0.093 0.797,-0.14 0.314,-0.055 0.626,-0.109 0.944,-0.168 0.274,-0.05 0.552,-0.104 0.828,-0.157 0.301,-0.058 0.602,-0.115 0.906,-0.175 0.762,-0.152 1.531,-0.313 2.303,-0.485 0.16,-0.035 0.321,-0.074 0.482,-0.11 C -5.773,1.569 -5.14,1.418 -4.507,1.26 -4.325,1.215 -4.143,1.17 -3.961,1.123 -2.727,0.807 -1.501,0.463 -0.297,0.09 -0.199,0.06 -0.098,0.031 0,0 m -3.273,-35.242 -12.781,-35.327 7.971,9.64 9.619,26.662 c -0.958,-0.243 -3.979,-0.834 -4.809,-0.975 m -3,9.613 c 0.609,0.107 12.166,2.138 11.466,7.757 -0.699,5.62 -13.067,9.509 -18.772,10.197 l 8.463,-12.829 -6.377,1.246 5.22,-6.371 M -29.525,0.534 C -27.544,0.4 10.102,-2.152 11.812,-15.884 13.52,-29.605 -5.69,-30.513 -6.701,-30.561 l -10.246,-28.001 1.469,30.15 -12.488,16.418 10.667,-1.795 z" style="fill-opacity: 1; fill-rule: nonzero; stroke: none;" id="path24"/>
        </g>
      </g>
    </g>
  </g>
</svg>